<?xml version="1.0" encoding="utf-8"?>
<!-- Generator: Adobe Illustrator 23.1.1, SVG Export Plug-In . SVG Version: 6.00 Build 0)  -->
<svg version="1.1" id="图层_1" xmlns="http://www.w3.org/2000/svg" xmlns:xlink="http://www.w3.org/1999/xlink" x="0px" y="0px"
	 viewBox="0 0 310.9 310.9" style="enable-background:new 0 0 310.9 310.9;" xml:space="preserve">
<style type="text/css">
	.st0{fill:#F1C40F;}
	.st1{fill:#E67E22;}
	.st2{fill:none;stroke:#000000;stroke-width:9.1741;stroke-linecap:round;stroke-linejoin:round;stroke-miterlimit:10;}
	.st3{opacity:0.5;}
	.st4{fill:#D35400;}
	.st5{fill:#E9F9FF;}
	.st6{fill:#52BDFF;}
	.st7{fill:#E17055;}
	.st8{fill:#3498DB;}
</style>
<title>至尊矢量包 09</title>
<g>
	<g>
		<g>
			<circle class="st0" cx="211.7" cy="136.5" r="94"/>
			<path class="st1" d="M141.5,136.5c0-47.9,35.8-87.4,82.1-93.3c-3.9-0.5-7.9-0.7-11.9-0.7c-51.9,0-94,42.1-94,94
				c0,51.9,42.1,94,94,94c4,0,8-0.3,11.9-0.7C177.3,224,141.5,184.4,141.5,136.5z"/>
		</g>
		<g>
			<path class="st2" d="M152.3,63.6c1.5-1.2,3.1-2.4,4.7-3.6"/>
			<path class="st2" d="M167.7,53.4c13.1-7,28.1-10.9,44.1-10.9c51.9,0,94,42.1,94,94s-42.1,94-94,94s-94-42.1-94-94
				c0-25.7,10.3-49,27.1-66"/>
		</g>
	</g>
	<g>
		<g>
			<path d="M182.7,115.7c-9.9,0-9.9,15.4,0,15.4C192.6,131.1,192.6,115.7,182.7,115.7z"/>
			<path d="M240.8,115.7c-9.9,0-9.9,15.4,0,15.4C250.7,131.1,250.7,115.7,240.8,115.7z"/>
		</g>
		<g>
			<path d="M211.7,148.9c-4.6,0-8.3-3.7-8.3-8.3c0-1,0.8-1.8,1.8-1.8s1.8,0.8,1.8,1.8c0,2.6,2.1,4.6,4.6,4.6c2.6,0,4.6-2.1,4.6-4.6
				c0-1,0.8-1.8,1.8-1.8s1.8,0.8,1.8,1.8C220,145.2,216.3,148.9,211.7,148.9z"/>
		</g>
		<g class="st3">
			<path class="st4" d="M174.6,146.4c-7.1,0-7.1,11,0,11C181.7,157.4,181.7,146.4,174.6,146.4z"/>
			<path class="st4" d="M248.8,146.4c-7.1,0-7.1,11,0,11C255.9,157.4,255.9,146.4,248.8,146.4z"/>
		</g>
	</g>
</g>
<g>
	<g>
		<g>
			<path class="st5" d="M236.6,298.5c26.1,0,47.2-21.1,47.2-47.2S262.7,204,236.6,204c-2.7,0-5.2,0.2-7.8,0.6c0.7-2.9,1.1-6,1.1-9.2
				c0-22.4-18.1-40.5-40.5-40.5c-8,0-15.4,2.3-21.7,6.3c-12-18.1-32.5-30-55.8-30c-36.9,0-66.8,29.9-66.8,66.8
				c0,2.2,0.1,4.3,0.3,6.4c-22.9,3.2-40.6,22.9-40.6,46.8c0,26.1,21.1,47.2,47.2,47.2H236.6z"/>
			<path class="st6" d="M25.1,251.3c0-23.8,17.6-43.5,40.6-46.8c-0.2-2.1-0.3-4.2-0.3-6.4c0-33.5,24.6-61.2,56.7-66.1
				c-3.3-0.5-6.7-0.8-10.1-0.8c-36.9,0-66.8,29.9-66.8,66.8c0,2.2,0.1,4.3,0.3,6.4c-22.9,3.2-40.6,22.9-40.6,46.8
				c0,26.1,21.1,47.2,47.2,47.2h20.3C46.3,298.5,25.1,277.4,25.1,251.3z"/>
		</g>
		<g>
			<path class="st2" d="M53.7,165.3c-5.5,9.7-8.6,20.9-8.6,32.8c0,2.2,0.1,4.3,0.3,6.4c-22.9,3.2-40.6,22.9-40.6,46.8
				c0,26.1,21.1,47.2,47.2,47.2l143.5,0"/>
			<path class="st2" d="M65.6,149.9c-1.8,1.7-3.5,3.5-5,5.4"/>
			<path class="st2" d="M283.9,251.3c0-26.1-21.1-47.2-47.2-47.2c-2.7,0-5.2,0.2-7.8,0.6c0.7-2.9,1.1-6,1.1-9.2
				c0-22.4-18.1-40.5-40.5-40.5c-8,0-15.4,2.3-21.7,6.3c-12-18.1-32.5-30-55.8-30c-13.4,0-25.9,3.9-36.3,10.7"/>
			<path class="st2" d="M277.8,274.5c2.5-4.4,4.2-9.1,5.2-14.2"/>
			<path class="st2" d="M211.7,298.5h24.9c14,0,26.5-6.1,35.2-15.7"/>
		</g>
	</g>
	<g>
		<g>
			<path d="M113.8,221.6c-9.5,0-9.6,14.8,0,14.8C123.4,236.4,123.4,221.6,113.8,221.6z"/>
			<path d="M174.9,221.6c-9.5,0-9.6,14.8,0,14.8C184.4,236.4,184.4,221.6,174.9,221.6z"/>
		</g>
		<g>
			<path d="M158.5,240.7c1,0,1.7,1,1.6,2c-1.1,7.1-7.7,12.5-15.7,12.5c-8,0-14.6-5.4-15.7-12.5c-0.2-1.1,0.6-2,1.6-2H158.5z"/>
			<ellipse class="st7" cx="144.3" cy="250.7" rx="6.1" ry="2.9"/>
		</g>
		<g class="st3">
			<path class="st6" d="M104.6,248.8c-8,0-8,12.4,0,12.4C112.6,261.2,112.6,248.8,104.6,248.8z"/>
			<path class="st6" d="M184.1,248.8c-8,0-8,12.4,0,12.4C192,261.2,192,248.8,184.1,248.8z"/>
		</g>
	</g>
</g>
<g>
	<path class="st8" d="M254.1,28.7c-5.5,0-10-4.5-10-10c0-5.5,4.5-10,10-10c5.5,0,10,4.5,10,10C264.1,24.2,259.6,28.7,254.1,28.7z
		 M254.1,13.3c-3,0-5.4,2.4-5.4,5.4s2.4,5.4,5.4,5.4c3,0,5.4-2.4,5.4-5.4S257.1,13.3,254.1,13.3z"/>
	<path class="st8" d="M92.1,96H85v-7.2c0-1.8-1.5-3.3-3.3-3.3s-3.3,1.5-3.3,3.3V96h-7.2c-1.8,0-3.3,1.5-3.3,3.3s1.5,3.3,3.3,3.3h7.2
		v7.2c0,1.8,1.5,3.3,3.3,3.3s3.3-1.5,3.3-3.3v-7.2h7.2c1.8,0,3.3-1.5,3.3-3.3S93.9,96,92.1,96z"/>
	<path class="st8" d="M300.4,46.9h-5v-5c0-1.2-1-2.3-2.3-2.3c-1.2,0-2.3,1-2.3,2.3v5h-5c-1.2,0-2.3,1-2.3,2.3c0,1.2,1,2.3,2.3,2.3h5
		v5c0,1.2,1,2.3,2.3,2.3c1.2,0,2.3-1,2.3-2.3v-5h5c1.2,0,2.3-1,2.3-2.3C302.6,47.9,301.6,46.9,300.4,46.9z"/>
	<path class="st0" d="M300.7,288.3h-5.1v-5.1c0-1.3-1-2.3-2.3-2.3s-2.3,1-2.3,2.3v5.1h-5.1c-1.3,0-2.3,1-2.3,2.3s1,2.3,2.3,2.3h5.1
		v5.1c0,1.3,1,2.3,2.3,2.3s2.3-1,2.3-2.3V293h5.1c1.3,0,2.3-1,2.3-2.3S302,288.3,300.7,288.3z"/>
	<path class="st0" d="M159.5,16.2h-6.3V10c0-1.6-1.3-2.8-2.8-2.8s-2.8,1.3-2.8,2.8v6.3h-6.3c-1.6,0-2.8,1.3-2.8,2.8s1.3,2.8,2.8,2.8
		h6.3v6.3c0,1.6,1.3,2.8,2.8,2.8s2.8-1.3,2.8-2.8v-6.3h6.3c1.6,0,2.8-1.3,2.8-2.8S161.1,16.2,159.5,16.2z"/>
	<path class="st1" d="M28,146.7h-4.9v-4.9c0-1.2-1-2.2-2.2-2.2s-2.2,1-2.2,2.2v4.9h-4.9c-1.2,0-2.2,1-2.2,2.2c0,1.2,1,2.2,2.2,2.2
		h4.9v4.9c0,1.2,1,2.2,2.2,2.2s2.2-1,2.2-2.2v-4.9H28c1.2,0,2.2-1,2.2-2.2C30.2,147.7,29.2,146.7,28,146.7z"/>
	<path class="st1" d="M293.2,209.9c-6.5,0-6.5,10.1,0,10.1C299.7,219.9,299.7,209.9,293.2,209.9z"/>
	<path class="st1" d="M43.9,8.3c-6.5,0-6.5,10.1,0,10.1C50.4,18.4,50.4,8.3,43.9,8.3z"/>
	<g>
		<path class="st0" d="M52.7,50.6c-0.7,0-1.2-0.6-1.2-1.2v-6.4c0-0.7,0.6-1.2,1.2-1.2c0.7,0,1.2,0.6,1.2,1.2v6.4
			C53.9,50,53.3,50.6,52.7,50.6z"/>
		<path class="st0" d="M49.3,52c-0.5,0.5-1.3,0.5-1.8,0L43,47.4c-0.5-0.5-0.5-1.3,0-1.8c0.5-0.5,1.3-0.5,1.8,0l4.5,4.5
			C49.8,50.7,49.8,51.5,49.3,52z"/>
		<path class="st0" d="M47.9,55.3c0,0.7-0.6,1.2-1.2,1.2h-6.4c-0.7,0-1.2-0.6-1.2-1.2c0-0.7,0.6-1.2,1.2-1.2h6.4
			C47.3,54.1,47.9,54.6,47.9,55.3z"/>
		<path class="st0" d="M49.3,58.7c0.5,0.5,0.5,1.3,0,1.8l-4.5,4.5c-0.5,0.5-1.3,0.5-1.8,0c-0.5-0.5-0.5-1.3,0-1.8l4.5-4.5
			C48,58.2,48.8,58.2,49.3,58.7z"/>
		<path class="st0" d="M52.7,60.1c0.7,0,1.2,0.6,1.2,1.2v6.4c0,0.7-0.6,1.2-1.2,1.2c-0.7,0-1.2-0.6-1.2-1.2v-6.4
			C51.4,60.6,52,60.1,52.7,60.1z"/>
		<path class="st0" d="M56,58.7c0.5-0.5,1.3-0.5,1.8,0l4.5,4.5c0.5,0.5,0.5,1.3,0,1.8c-0.5,0.5-1.3,0.5-1.8,0L56,60.4
			C55.5,59.9,55.5,59.2,56,58.7z"/>
		<path class="st0" d="M57.4,55.3c0-0.7,0.6-1.2,1.2-1.2H65c0.7,0,1.2,0.6,1.2,1.2c0,0.7-0.6,1.2-1.2,1.2h-6.4
			C58,56.5,57.4,56,57.4,55.3z"/>
		<path class="st0" d="M56,52c-0.5-0.5-0.5-1.3,0-1.8l4.5-4.5c0.5-0.5,1.3-0.5,1.8,0s0.5,1.3,0,1.8L57.8,52
			C57.3,52.4,56.5,52.4,56,52z"/>
	</g>
</g>
</svg>
